<svg xmlns="http://www.w3.org/2000/svg" viewBox="0 0 512 512">
  <rect width="512" height="512" fill="#0a0a0f"/>
  <rect x="48" y="48" width="416" height="416" rx="104" fill="url(#panel)" stroke="rgba(255,255,255,0.1)"/>
  <path d="M136 312C136 221 208 149 299 149c40 0 78 14 108 38-19-4-34 8-45 24-14 21-24 30-41 30-19 0-27-12-39-27-12-15-25-28-48-28-31 0-58 22-58 58 0 11 2 21 6 30H136Z" fill="none" stroke="url(#accent)" stroke-width="26" stroke-linecap="round" stroke-linejoin="round"/>
  <circle cx="256" cy="344" r="14" fill="#f7931a"/>
  <defs>
    <linearGradient id="panel" x1="72" y1="64" x2="440" y2="440" gradientUnits="userSpaceOnUse">
      <stop stop-color="#1a1a27"/>
      <stop offset="1" stop-color="#0b0b11"/>
    </linearGradient>
    <linearGradient id="accent" x1="136" y1="149" x2="407" y2="358" gradientUnits="userSpaceOnUse">
      <stop stop-color="#f7931a"/>
      <stop offset="1" stop-color="#ffbf69"/>
    </linearGradient>
  </defs>
</svg>
