<svg xmlns="http://www.w3.org/2000/svg" viewBox="0 0 512 512">
  <rect width="512" height="512" rx="120" fill="#0a0a0f"/>
  <rect x="24" y="24" width="464" height="464" rx="104" fill="url(#bg)" stroke="rgba(255,255,255,0.08)"/>
  <path d="M108 318C108 205 197 116 310 116c49 0 94 17 128 46-23-5-41 8-55 29-16 25-27 35-47 35-22 0-32-14-46-31-14-17-29-33-56-33-38 0-70 27-70 72 0 13 2 25 7 36H108Z" fill="none" stroke="url(#accent)" stroke-width="28" stroke-linecap="round" stroke-linejoin="round"/>
  <circle cx="257" cy="351" r="16" fill="#f7931a"/>
  <defs>
    <linearGradient id="bg" x1="64" y1="48" x2="448" y2="464" gradientUnits="userSpaceOnUse">
      <stop stop-color="#161621"/>
      <stop offset="1" stop-color="#09090d"/>
    </linearGradient>
    <linearGradient id="accent" x1="108" y1="116" x2="438" y2="376" gradientUnits="userSpaceOnUse">
      <stop stop-color="#f7931a"/>
      <stop offset="1" stop-color="#ffb454"/>
    </linearGradient>
  </defs>
</svg>
